# xmcd CD database file
#
# Track frame offsets:
#	180
#	15201
#	34179
#	54034
#	71996
#	86609
#	110319
#	128262
#	142233
#	160578
#	178760
#	199427
#	220571
#	240396
#
# Disc length: 3281 seconds
#
# Revision: 2
# Processed by: cddbd v1.5PL3 Copyright (c) Steve Scherf et al.
# Submitted via: CDex 1.50
#
DISCID=b30ccf0e
DTITLE=Hank H‰berle Jr. - Irgendwie isch jeder ganz alloi
DYEAR=2002
DGENRE=Deutsch-Rock
TTITLE0=Intro: Bruder H‰bi's Klagelied
TTITLE1=Schugget mi net emmer bei meim Bier
TTITLE2=V8-Big-Block
TTITLE3=Die demmschte Baura
TTITLE4=Irgendwie isch jeder ganz alloi
TTITLE5=Rote Rosen, braune Hand
TTITLE6=Der Himmel in deinen rotversoffnen Augen
TTITLE7=Wir brauchen keine Frauen...
TTITLE8=Sonscht ben i gsond
TTITLE9=Bloﬂ d'Oma, die isch krank
TTITLE10=Zwiebelrostbraten mit Brot ond Soﬂ'
TTITLE11=Wer dappt uff meiner Beene rom?
TTITLE12=Jedesmol dr gleiche Scheiﬂ
TTITLE13=Outtro: H‰berle gutta Mann
EXTD=YEAR: 2002
EXTT0=
EXTT1=
EXTT2=
EXTT3=
EXTT4=
EXTT5=
EXTT6=
EXTT7=
EXTT8=
EXTT9=
EXTT10=
EXTT11=
EXTT12=
EXTT13=
PLAYORDER=
